<?xml version="1.0" encoding="UTF-8" standalone="no"?>
<!DOCTYPE svg PUBLIC "-//W3C//DTD SVG 1.1//EN" "http://www.w3.org/Graphics/SVG/1.1/DTD/svg11.dtd">
<svg width="100%" height="100%" viewBox="0 0 4328 3395" version="1.1" xmlns="http://www.w3.org/2000/svg" xmlns:xlink="http://www.w3.org/1999/xlink" xml:space="preserve" xmlns:serif="http://www.serif.com/" style="fill-rule:evenodd;clip-rule:evenodd;stroke-linejoin:round;stroke-miterlimit:2;">
    <g transform="matrix(1,0,0,1,-1344.32,-3060.69)">
        <g transform="matrix(25.9264,0,0,25.9264,-49859,-81058)">
            <path d="M1990.45,3375.47C1994.65,3375.47 1998.4,3373.87 2001.15,3370.67L1996.65,3365.27C1995.25,3366.77 1993.25,3368.07 1990.75,3368.07C1986.55,3368.07 1983.75,3364.67 1983.75,3358.57C1983.75,3352.67 1987.05,3349.17 1990.85,3349.17C1993.05,3349.17 1994.65,3350.17 1996.25,3351.57L2000.75,3346.07C1998.45,3343.77 1994.95,3341.77 1990.65,3341.77C1982.45,3341.77 1974.95,3347.97 1974.95,3358.87C1974.95,3369.97 1982.15,3375.47 1990.45,3375.47Z" style="fill:rgb(74,78,105);fill-rule:nonzero;"/>
            <path d="M2013.85,3375.47C2022.85,3375.47 2028.95,3369.17 2028.95,3358.47C2028.95,3347.82 2022.85,3341.77 2013.85,3341.77C2004.85,3341.77 1998.75,3347.77 1998.75,3358.47C1998.75,3369.17 2004.85,3375.47 2013.85,3375.47ZM2013.85,3368.07C2009.95,3368.07 2007.55,3364.37 2007.55,3358.47C2007.55,3352.57 2009.95,3349.17 2013.85,3349.17C2017.75,3349.17 2020.15,3352.57 2020.15,3358.47C2020.15,3364.37 2017.75,3368.07 2013.85,3368.07Z" style="fill:rgb(74,78,105);fill-rule:nonzero;"/>
            <path d="M2044.55,3375.47C2053.65,3375.47 2057.85,3370.27 2057.85,3359.17L2057.85,3342.37L2049.55,3342.37L2049.55,3360.17C2049.55,3365.97 2047.95,3368.07 2044.55,3368.07C2041.15,3368.07 2039.65,3365.97 2039.65,3360.17L2039.65,3342.37L2031.05,3342.37L2031.05,3359.17C2031.05,3370.27 2035.45,3375.47 2044.55,3375.47Z" style="fill:rgb(74,78,105);fill-rule:nonzero;"/>
            <path d="M2075.45,3375.47C2079.65,3375.47 2083.4,3373.87 2086.15,3370.67L2081.65,3365.27C2080.25,3366.77 2078.25,3368.07 2075.75,3368.07C2071.55,3368.07 2068.75,3364.67 2068.75,3358.57C2068.75,3352.67 2072.05,3349.17 2075.85,3349.17C2078.05,3349.17 2079.65,3350.17 2081.25,3351.57L2085.75,3346.07C2083.45,3343.77 2079.95,3341.77 2075.65,3341.77C2067.45,3341.77 2059.95,3347.97 2059.95,3358.87C2059.95,3369.97 2067.15,3375.47 2075.45,3375.47Z" style="fill:rgb(74,78,105);fill-rule:nonzero;"/>
            <path d="M2087.15,3374.87L2095.75,3374.87L2095.75,3361.97L2105.45,3361.97L2105.45,3374.87L2114.05,3374.87L2114.05,3342.37L2105.45,3342.37L2105.45,3354.47L2095.75,3354.47L2095.75,3342.37L2087.15,3342.37L2087.15,3374.87Z" style="fill:rgb(74,78,105);fill-rule:nonzero;"/>
            <path d="M2123.45,3374.87L2132.05,3374.87L2132.05,3363.67L2141.85,3342.37L2132.85,3342.37L2130.45,3349.17C2129.6,3351.62 2128.75,3353.87 2127.9,3356.42L2127.7,3356.42C2126.85,3353.87 2126.05,3351.62 2125.25,3349.17L2122.85,3342.37L2113.65,3342.37L2123.45,3363.67L2123.45,3374.87Z" style="fill:rgb(74,78,105);fill-rule:nonzero;"/>
        </g>
        <g transform="matrix(1.30099,0,0,1.30099,1045.49,-438.59)">
            <circle cx="1892.7" cy="3547.06" r="857.353" style="fill:rgb(201,173,167);"/>
            <clipPath id="_clip1">
                <circle cx="1892.7" cy="3547.06" r="857.353"/>
            </clipPath>
            <g clip-path="url(#_clip1)">
                <g transform="matrix(1,0,0,1,-1615.18,37.0476)">
                    <path d="M3955.76,3637.98C3948.89,3635.61 3473.94,3162.97 3469.7,3152.36C3465.46,3141.76 3465.46,3131.37 3469.7,3121.19L3542.23,2963.41C3546.31,2953.34 3551.72,2946.37 3558.47,2942.5C3565.22,2938.63 3575.08,2936.69 3588.03,2936.69L3697.46,2936.69C3706.55,2936.69 3714.12,2939.7 3720.18,2945.73C3726.24,2951.75 3729.27,2959.34 3729.27,2968.5L3729.27,3039.97L3817.06,3038.49C3863.72,3038.49 3903.16,3054.6 3935.4,3086.84C3944.48,3095.92 3952.29,3105.58 3958.81,3115.81C3969.05,3122.34 3978.7,3130.14 3987.79,3139.23C3996.88,3148.32 4397.86,3549.3 4406.95,3558.39C4416.03,3567.47 4423.84,3577.13 4430.36,3587.37C4440.6,3593.89 4450.26,3601.7 4459.34,3610.78C4491.58,3643.01 4507.69,3682.46 4507.69,3729.11L4507.69,4463.28L3671.73,4463.28C3638.93,4463.28 3611.43,4452.19 3589.24,4429.99C3580,4420.76 3074.52,3915.28 3065.29,3906.05C3043.1,3883.85 3032,3856.36 3032,3823.55L3032,3696.31C3032,3671.71 3040.91,3650.27 3058.72,3631.99C3076.53,3613.72 3101.56,3604.62 3133.79,3604.7L3133.79,3471.1C3133.79,3452.86 3140.68,3436.85 3154.47,3423.06C3168.25,3409.28 3184.26,3402.39 3202.5,3402.39L3602.03,3402.39C3620.27,3402.39 3636.28,3409.28 3650.06,3423.06C3660.01,3433.01 3666.37,3444.12 3669.14,3456.39C3681.41,3459.15 3948.14,3724.19 3955.76,3729.89L3955.76,3637.98ZM3990.79,3224.56C3995.59,3225.1 4000.31,3225.87 4004.93,3226.88C4006.43,3233.74 4007.41,3240.8 4007.86,3248.06L3991.24,3248.06L3991.24,3230.48C3991.24,3228.43 3991.09,3226.45 3990.79,3224.56ZM3982.71,3185.14C3985.24,3186.41 3987.74,3187.76 3990.21,3189.21C3991.65,3191.67 3993.01,3194.17 3994.28,3196.7C3990.74,3196.33 3987.16,3196.06 3983.53,3195.89C3983.36,3192.26 3983.09,3188.68 3982.71,3185.14ZM3938.39,3172.17C3943.2,3172.7 3947.91,3173.48 3952.53,3174.49C3954.03,3181.34 3955.01,3188.4 3955.46,3195.67L3938.85,3195.67L3938.85,3178.08C3938.85,3176.03 3938.7,3174.06 3938.39,3172.17ZM3886,3119.77C3904.68,3121.85 3921.95,3127.53 3937.82,3136.81C3939.26,3139.28 3940.61,3141.78 3941.88,3144.31C3935.36,3143.62 3928.68,3143.27 3921.85,3143.27L3886.45,3143.27L3886.45,3125.69C3886.45,3123.64 3886.3,3121.66 3886,3119.77ZM3833.6,3067.38C3857.54,3070.04 3879.16,3078.62 3898.47,3093.1C3889.13,3091.62 3879.46,3090.88 3869.46,3090.88L3834.06,3090.88L3834.06,3073.29C3834.06,3071.24 3833.91,3069.27 3833.6,3067.38Z" style="fill:rgb(74,78,105);fill-opacity:0.24;fill-rule:nonzero;"/>
                </g>
                <g transform="matrix(25.4478,0,0,25.4478,1281.95,2889.76)">
                    <path d="M41.6,42.7L41.6,13.85C41.6,12.359 41.064,11.078 39.993,10.007C38.922,8.936 37.641,8.4 36.15,8.4L32.7,8.4L32.7,11.15C32.7,11.507 32.581,11.805 32.343,12.043C32.105,12.281 31.807,12.4 31.45,12.4L23.55,12.4C23.017,12.4 22.667,12.192 22.5,11.775C22.333,11.358 22.333,10.95 22.5,10.55L25.35,4.35C25.51,3.954 25.723,3.68 25.988,3.528C26.254,3.376 26.641,3.3 27.15,3.3L31.45,3.3C31.807,3.3 32.105,3.418 32.343,3.655C32.581,3.892 32.7,4.19 32.7,4.55L32.7,7.3L36.15,7.3C37.983,7.3 39.533,7.933 40.8,9.2C42.067,10.467 42.7,12.017 42.7,13.85L42.7,42.7L41.6,42.7ZM23.35,11.3L31.6,11.3L31.6,4.4L26.398,4.4L23.35,11.3ZM9.85,42.7C8.561,42.7 7.48,42.264 6.608,41.392C5.736,40.52 5.3,39.439 5.3,38.15L5.3,33.15C5.3,32.183 5.65,31.341 6.35,30.623C7.05,29.904 8.033,29.547 9.3,29.55L9.3,24.3C9.3,23.583 9.571,22.954 10.113,22.412C10.654,21.871 11.283,21.6 12,21.6L27.7,21.6C28.417,21.6 29.046,21.871 29.588,22.412C30.129,22.954 30.4,23.583 30.4,24.3L30.4,29.55C31.667,29.547 32.65,29.888 33.35,30.572C34.05,31.257 34.4,32.117 34.4,33.15L34.4,38.15C34.4,39.439 33.964,40.52 33.092,41.392C32.22,42.264 31.139,42.7 29.85,42.7L9.85,42.7ZM10.4,24.3L10.4,29.8C11,30.125 11.483,30.62 11.85,31.285C12.217,31.95 12.4,32.572 12.4,33.15L12.4,35.6L27.3,35.6L27.3,33.15C27.3,32.572 27.483,31.95 27.85,31.285C28.217,30.62 28.7,30.125 29.3,29.8L29.3,24.3C29.3,23.833 29.15,23.45 28.85,23.15C28.55,22.85 28.167,22.7 27.7,22.7L12,22.7C11.533,22.7 11.15,22.85 10.85,23.15C10.55,23.45 10.4,23.833 10.4,24.3ZM9.85,41.6L29.85,41.6C30.885,41.6 31.719,41.241 32.351,40.522C32.984,39.803 33.3,39.013 33.3,38.15L33.3,33.15C33.3,32.443 33.067,31.858 32.602,31.395C32.137,30.932 31.549,30.7 30.84,30.7C30.13,30.7 29.546,30.932 29.088,31.395C28.629,31.858 28.4,32.443 28.4,33.15L28.4,36.7L11.3,36.7L11.3,33.15C11.3,32.443 11.067,31.858 10.602,31.395C10.137,30.932 9.549,30.7 8.84,30.7C8.13,30.7 7.546,30.932 7.088,31.395C6.629,31.858 6.4,32.443 6.4,33.15L6.4,38.15C6.4,39.013 6.716,39.803 7.349,40.522C7.981,41.241 8.815,41.6 9.85,41.6ZM27.3,35.6L12.4,35.6L27.3,35.6ZM10.4,22.7L29.3,22.7L10.4,22.7ZM11.3,41.6L28.4,41.6L11.3,41.6Z" style="fill:rgb(242,233,228);fill-rule:nonzero;"/>
                </g>
            </g>
        </g>
    </g>
</svg>
